Coordinates
version=1
nRows=19
nColumns=36
inDegrees=yes

Units are S.I. units (second, meters, Newtons, ...)
If the header above contains a line with 'inDegrees', this indicates whether rotational values are in degrees (yes) or radians (no).

endheader
time	pelvis_tilt	pelvis_list	pelvis_rotation	pelvis_tx	pelvis_ty	pelvis_tz	hip_flexion_r	hip_adduction_r	hip_rotation_r	knee_angle_r	knee_angle_r_beta	ankle_angle_r	subtalar_angle_r	mtp_angle_r	hip_flexion_l	hip_adduction_l	hip_rotation_l	knee_angle_l	knee_angle_l_beta	ankle_angle_l	subtalar_angle_l	mtp_angle_l	lumbar_extension	lumbar_bending	lumbar_rotation	arm_flex_r	arm_add_r	arm_rot_r	elbow_flex_r	pro_sup_r	arm_flex_l	arm_add_l	arm_rot_l	elbow_flex_l	pro_sup_l
      0.00000000	      1.87328851	     -2.38198362	     -2.20122442	      1.00186036	      0.92213019	      0.81214904	     14.70863959	      2.56300604	      3.17767192	     13.00577628	      0.22699362	      0.20444917	     -5.63945858	     -6.71465450	     -5.56181393	     -5.76699057	      2.17059667	     39.34486630	      0.68669746	      0.23285769	     -9.57836332	     -6.71465450	    -15.31995552	      3.84996892	      0.35513705	      5.01283207	    -10.88939710	     -5.37195216	     23.85461575	     89.85817380	     15.31272995	     -9.03337123	      7.16279437	     23.53443184	     87.94743254
      0.01666670	      1.10536724	     -1.80817323	     -2.19057498	      1.01158698	      0.92426348	      0.81731970	     15.22843540	      2.31840002	      4.53390798	     15.04464893	      0.26257866	      1.60280966	     -4.13164084	     -6.78531966	     -1.70870623	     -5.96841239	      1.75621561	     45.24531973	      0.78967980	     -5.18603057	    -10.92097774	     -6.78531966	    -14.90093524	      3.08659622	      0.70572171	      4.52665984	    -10.67181605	     -6.28944278	     24.01277456	     88.91755685	     14.47024671	     -8.71904895	      5.50259715	     24.53191382	     86.74638629
      0.03333330	      1.22820228	     -1.28400570	     -2.88497487	      1.01745106	      0.93004374	      0.82257919	     14.33440269	      2.07883460	      6.26952983	     15.59257204	      0.27214172	      2.08210945	     -4.13936161	     -6.77840969	      0.56112426	     -5.91270800	      2.09503956	     49.80093513	      0.86919029	     -6.56170129	     -9.62887145	     -6.77840969	    -14.94758033	      2.50621439	      1.51743825	      5.04440666	    -10.48342424	     -5.86773319	     22.53296222	     87.56709056	     13.93115026	     -8.47804267	      4.79243526	     24.24608871	     85.33160253
      0.05000000	      1.40348688	     -0.80120297	     -3.24868985	      1.02113226	      0.93527727	      0.82566951	     12.87008904	      1.79769006	      7.45725734	     15.49016268	      0.27035434	      3.21781820	     -3.77466214	     -6.78396460	      2.70039434	     -6.02793036	      1.83601619	     53.29121039	      0.93010708	     -7.45838498	     -9.88571581	     -6.78396460	    -15.60366301	      1.99836038	      2.07954442	      5.16252904	    -10.35458304	     -5.78137220	     22.38487048	     87.50162918	     13.56156468	     -8.46889103	      4.72746316	     24.24185027	     85.23099290
      0.06666670	      0.40334316	     -0.33556337	     -3.49092698	      1.02352306	      0.93764376	      0.82733365	     12.86192880	      1.44592532	      7.88327355	     15.95674978	      0.27849782	      4.94405169	     -2.60012119	     -6.77832592	      6.12095596	     -6.07043383	      1.60510650	     56.30924069	      0.98278165	     -7.93043667	    -11.00072204	     -6.77832592	    -14.44350890	      1.71780910	      2.62778963	      5.22946718	    -10.41308275	     -4.45717973	     20.93486539	     85.58281493	     12.73861388	     -8.15137768	      4.19166074	     24.32935799	     83.16588784
      0.08333330	      0.13003069	      0.18638094	     -3.57669132	      1.02474695	      0.93987823	      0.82896280	     11.89647260	      0.89749991	      8.10655773	     16.03715352	      0.27990113	      6.20996346	     -1.49242094	     -6.76083043	      8.46425048	     -5.88923937	      1.27893377	     58.12101449	      1.01440307	     -7.61764547	    -11.92713851	     -6.76083043	    -14.28192598	      1.26394706	      2.96596737	      5.33524152	    -10.26400304	     -3.30439649	     20.51439024	     84.00648715	     12.29814568	     -8.02490435	      3.97043886	     24.39209113	     81.59097614
      0.10000000	     -0.05857497	      0.66547689	     -3.58702641	      1.02480570	      0.94087573	      0.83115191	     10.81090550	      0.39657188	      8.41838359	     15.93016358	      0.27803380	      6.94875984	     -1.09915977	     -6.74646976	     10.51249805	     -5.69371856	      0.78238269	     59.21938985	      1.03357333	     -6.88578350	    -13.13977788	     -6.74646976	    -14.12391528	      0.83548845	      3.26608167	      5.48515842	    -10.22088072	     -1.66020607	     20.34384950	     82.78889847	     11.89778917	     -8.00900542	      4.04090396	     24.19845109	     80.41552995
      0.11666670	     -0.05847207	      1.06735805	     -3.46830733	      1.02368707	      0.93933417	      0.83317512	      9.54650968	     -0.03677448	      8.59910287	     15.69079379	      0.27385601	      7.40426323	     -0.93755848	     -6.75230670	     12.36870113	     -5.57188956	      0.18462040	     59.71323051	      1.04219248	     -5.65023209	    -14.13017408	     -6.75230670	    -14.25231886	      0.45173565	      3.64360382	      5.67072642	    -10.07307502	     -1.55010980	     20.62168591	     82.69058198	     11.43721822	     -8.09123828	      4.02023435	     24.13492485	     80.30650917
      0.13333330	     -0.15793779	      1.45220230	     -3.33594811	      1.02300832	      0.93621192	      0.83450982	      8.58110035	     -0.42988997	      8.57572680	     15.64265694	      0.27301587	      8.30261179	     -0.45231623	     -6.76410078	     14.43171550	     -5.45678071	     -0.45820499	     59.91665938	      1.04574298	     -3.99993594	    -15.32688967	     -6.76410078	    -14.23766788	     -0.10627916	      4.11536042	      5.86782261	    -10.10902189	     -1.21992181	     21.10315966	     82.65212481	     10.93363501	     -8.14214695	      3.91151826	     23.75985009	     80.19211517
      0.15000000	     -0.32887652	      1.76908996	     -3.05305620	      1.02417894	      0.93389391	      0.83545786	      7.76505387	     -0.81408834	      7.91386393	     15.65944419	      0.27330886	      9.57783154	      0.96906973	     -6.85065152	     16.64713878	     -5.42212835	     -1.00904131	     59.62822563	      1.04070886	     -2.26869792	    -16.20354672	     -6.85065152	    -14.01150095	     -0.47905159	      4.89511579	      5.71952763	    -10.51280166	      0.58128518	     22.05321157	     81.64327560	     10.84044947	     -8.01644261	      3.40362169	     22.26204163	     79.05871915
      0.16666670	     -0.17871133	      2.01146754	     -2.78833043	      1.02560553	      0.93387047	      0.83654590	      6.58700328	     -1.06778623	      7.55439876	     15.53532322	      0.27114254	     10.62862688	      1.66938643	     -7.11577335	     18.39169339	     -5.56497751	     -1.67501184	     58.57535089	      1.02233273	     -0.68661145	    -16.77385211	     -7.11577335	    -14.24467653	     -0.89670418	      5.35695258	      5.90541088	    -10.79476364	      1.68868856	     23.01404043	     83.67915129	     10.16227920	     -7.95772297	      1.34412009	     22.40677520	     82.60853676
      0.18333330	      0.01962359	      2.13193198	     -2.49014468	      1.02490158	      0.93510566	      0.83670112	      5.37527246	     -1.24299120	      7.12160770	     15.34980371	      0.26790461	     11.65776490	      2.65965336	     -7.13585649	     19.89572787	     -5.83145930	     -2.29486520	     56.59112906	      0.98770153	      0.31703026	    -17.22180581	     -7.13585649	    -14.58502352	     -1.14241222	      5.94603517	      5.93386494	    -11.01366850	      1.74325963	     24.31690232	     82.54624496	      9.61013907	     -7.93518807	      1.00037815	     22.88016074	     81.43872125
      0.20000000	      0.29352942	      2.30617011	     -2.27327418	      1.02229598	      0.93621607	      0.83595698	      4.17604890	     -1.52081097	      6.87817253	     15.25250453	      0.26620642	     12.74556321	      3.59446101	     -7.14644951	     21.01077205	     -6.08531432	     -3.04158371	     53.74784966	      0.93807694	      1.31488225	    -16.70130293	     -7.14644951	    -15.05560537	     -1.51192974	      6.95334492	      5.79718338	    -11.43465517	      2.09455426	     25.67160535	     82.88713098	      9.60453943	     -7.72777444	      0.52688276	     22.96781927	     81.56849971
      0.21666670	      0.55380679	      2.43573170	     -2.00978539	      1.01964699	      0.93717103	      0.83446864	      2.92316013	     -1.80167002	      6.89249951	     15.03099660	      0.26234038	     13.45517172	      4.32266424	     -7.15859480	     21.86792794	     -6.29203432	     -3.61867938	     50.11732054	      0.87471226	      1.65090757	    -16.60424342	     -7.15859480	    -15.64422745	     -1.71062638	      7.72155357	      5.71981649	    -11.90212158	      2.25768779	     27.29941419	     83.39558139	      9.55485510	     -7.50765491	      0.03937228	     23.48352094	     81.90822373
      0.23333330	      0.69080958	      2.55791746	     -1.78316638	      1.01817020	      0.93783776	      0.83230170	      1.72421247	     -2.08622341	      7.24184251	     14.71936770	      0.25690143	     13.86293783	      4.75491727	     -7.25382846	     22.62294178	     -6.46172831	     -4.08749904	     45.99826591	      0.80282119	      1.76273954	    -16.53520275	     -7.25382846	    -16.15942964	     -1.86803201	      8.48662232	      5.56234222	    -12.18607060	      0.80627740	     28.98982440	     87.07252992	      9.54459804	     -7.04358548	     -1.98128544	     24.05389849	     85.40204222
      0.25000000	      0.86350576	      2.73012139	     -1.49389524	      1.01708608	      0.93930999	      0.82963712	      0.42897226	     -2.43378178	      7.76463791	     14.32459936	      0.25001142	     13.96973007	      4.93757178	     -7.26385005	     23.14299850	     -6.50126559	     -4.33892149	     41.57458447	      0.72561338	      1.85830655	    -16.46579284	     -7.26385005	    -16.71643820	     -2.01227518	      8.88210377	      5.81724051	    -12.63894082	      1.28517565	     29.98493697	     87.33017699	      9.46481888	     -6.90459918	     -1.92425153	     24.56142206	     85.47247212
      0.26666670	      0.84670825	      2.85416949	     -1.09681918	      1.01587742	      0.94081659	      0.82727837	     -0.60603270	     -2.73993564	      8.18588980	     13.94564696	      0.24339746	     13.84303603	      4.92852571	     -7.27860821	     23.64529837	     -6.51976247	     -4.42718945	     36.74418730	      0.64130705	      1.90220022	    -16.05157034	     -7.27860821	    -17.08763659	     -2.03489831	      9.02143809	      6.16721931	    -13.11452789	      2.12991974	     30.65511208	     85.76583531	      9.36637912	     -6.73979859	     -1.85506096	     24.55160265	     83.72650147
      0.28333330	      0.68645422	      2.90682888	     -0.63412818	      1.01396362	      0.94229070	      0.82555543	     -1.27016641	     -2.90326908	      8.91323309	     13.79539513	      0.24077507	     13.56149904	      4.36084221	     -7.29491397	     24.21571742	     -6.50705952	     -4.15495306	     31.97045736	      0.55798974	      1.72793458	    -15.69121805	     -7.29491397	    -17.37063984	     -1.95940438	      8.91227138	      6.68438510	    -13.59187158	      3.17914230	     30.97922619	     87.12672316	      9.10767564	     -6.66886104	     -1.92033729	     24.29554684	     84.53661952
      0.30000000	      0.44495291	      2.98560801	     -0.19692504	      1.01167859	      0.94279169	      0.82392407	     -1.62224844	     -3.07560026	      9.53631331	     13.84820810	      0.24169683	     13.63855788	      3.95616876	     -7.31890278	     24.87835477	     -6.42641767	     -3.85436068	     27.62336430	      0.48211866	      1.88369943	    -14.74800219	     -7.31890278	    -17.61552184	     -1.95010896	      8.48119541	      7.58607099	    -13.85186379	      4.12482085	     30.73643493	     88.74473003	      8.65831942	     -6.69486752	     -2.64512886	     24.20589890	     85.33413915
